<svg width="20" height="20" viewBox="0 0 20 20" fill="none" xmlns="http://www.w3.org/2000/svg">
<path d="M16.6665 10C16.6663 8.51409 16.1698 7.0708 15.2556 5.89935C14.3414 4.72789 13.0621 3.89542 11.6208 3.53413C10.1794 3.17284 8.65871 3.30344 7.30007 3.90519C5.94144 4.50694 4.82278 5.54535 4.12174 6.85551C3.4207 8.16568 3.17747 9.6725 3.43066 11.1367C3.68386 12.6009 4.41897 13.9385 5.51926 14.9372C6.61955 15.9359 8.02195 16.5384 9.50376 16.6489C10.9856 16.7595 12.4619 16.3718 13.6982 15.5475L14.6232 16.9342C13.255 17.8489 11.6456 18.336 9.99984 18.3334C5.39734 18.3334 1.6665 14.6025 1.6665 10C1.6665 5.39752 5.39734 1.66669 9.99984 1.66669C14.6023 1.66669 18.3332 5.39752 18.3332 10V11.25C18.3333 11.874 18.1332 12.4815 17.7625 12.9834C17.3918 13.4853 16.8699 13.855 16.2735 14.0384C15.677 14.2217 15.0375 14.2089 14.4489 14.0019C13.8603 13.7949 13.3536 13.4046 13.0032 12.8884C12.447 13.4667 11.7356 13.8721 10.9546 14.056C10.1736 14.2398 9.35606 14.1942 8.60031 13.9247C7.84455 13.6551 7.1827 13.1731 6.69426 12.5365C6.20582 11.8999 5.91157 11.1359 5.84687 10.3361C5.78217 9.53634 5.94977 8.7349 6.32952 8.02808C6.70928 7.32126 7.28505 6.73912 7.98765 6.3516C8.69024 5.96409 9.48979 5.78768 10.2902 5.84357C11.0906 5.89947 11.8579 6.18528 12.4998 6.66669H14.1665V11.25C14.1665 11.5815 14.2982 11.8995 14.5326 12.1339C14.767 12.3683 15.085 12.5 15.4165 12.5C15.748 12.5 16.066 12.3683 16.3004 12.1339C16.5348 11.8995 16.6665 11.5815 16.6665 11.25V10ZM9.99984 7.50002C9.3368 7.50002 8.70091 7.76341 8.23207 8.23225C7.76323 8.70109 7.49984 9.33698 7.49984 10C7.49984 10.6631 7.76323 11.2989 8.23207 11.7678C8.70091 12.2366 9.3368 12.5 9.99984 12.5C10.6629 12.5 11.2988 12.2366 11.7676 11.7678C12.2364 11.2989 12.4998 10.6631 12.4998 10C12.4998 9.33698 12.2364 8.70109 11.7676 8.23225C11.2988 7.76341 10.6629 7.50002 9.99984 7.50002Z" fill="#E6E6E6"/>
</svg>
