<svg width="48" height="48" viewBox="0 0 48 48" fill="none" xmlns="http://www.w3.org/2000/svg">
<rect width="13.9163" height="14.9868" rx="6.95816" transform="matrix(-1 0 0 1 18.6475 21.905)" fill="white" stroke="#3139CE" stroke-width="2"/>
<path d="M32.1357 12.7624C32.1357 8.2692 28.4932 4.62671 24 4.62671C19.5068 4.62671 15.8643 8.2692 15.8643 12.7624C15.8643 17.2557 19.5068 20.8982 24 20.8982C28.4932 20.8982 32.1357 17.2557 32.1357 12.7624Z" fill="white" stroke="#3139CE" stroke-width="2"/>
<path d="M16.5063 17.0878C16.5063 14.4274 14.3496 12.2706 11.6892 12.2706C9.0287 12.2706 6.87197 14.4274 6.87197 17.0878C6.87197 19.7483 9.0287 21.905 11.6892 21.905C14.3496 21.905 16.5063 19.7483 16.5063 17.0878Z" fill="white" stroke="#3139CE" stroke-width="2"/>
<rect x="29.3525" y="21.905" width="13.9163" height="14.9868" rx="6.95816" fill="white" stroke="#3139CE" stroke-width="2"/>
<path d="M34.1694 31.1697C34.1694 25.5531 29.6163 21 23.9998 21C18.3832 21 13.8301 25.5531 13.8301 31.1697V33.2036C13.8301 38.8202 18.3832 43.3733 23.9998 43.3733C29.6163 43.3733 34.1694 38.8202 34.1694 33.2036V31.1697Z" fill="white" stroke="#3139CE" stroke-width="2"/>
<path d="M31.4932 17.0878C31.4932 14.4274 33.6499 12.2706 36.3104 12.2706C38.9708 12.2706 41.1275 14.4274 41.1275 17.0878C41.1275 19.7483 38.9708 21.905 36.3104 21.905C33.6499 21.905 31.4932 19.7483 31.4932 17.0878Z" fill="white" stroke="#3139CE" stroke-width="2"/>
</svg>
