<svg width="48" height="48" viewBox="0 0 48 48" fill="none" xmlns="http://www.w3.org/2000/svg">
<path d="M39.8433 12.8875L40.472 13.6652C40.7068 13.4754 40.8433 13.1895 40.8433 12.8875C40.8433 12.5855 40.7068 12.2996 40.472 12.1098L39.8433 12.8875ZM28.8479 21.775H27.8479C27.8479 22.1603 28.0693 22.5114 28.417 22.6774C28.7647 22.8434 29.1768 22.7949 29.4765 22.5527L28.8479 21.775ZM28.8479 4L29.4765 3.22229C29.1768 2.98007 28.7647 2.93157 28.417 3.09761C28.0693 3.26365 27.8479 3.61469 27.8479 4H28.8479ZM28.8479 9.22234V10.2223C29.4002 10.2223 29.8479 9.77462 29.8479 9.22234H28.8479ZM6.85693 29.7472H5.85693C5.85693 30.1335 6.07944 30.4852 6.42851 30.6507C6.77757 30.8162 7.19074 30.7659 7.48983 30.5214L6.85693 29.7472ZM14.2371 23.7142L14.87 24.4885C15.0724 24.323 15.202 24.0847 15.2309 23.8248L14.2371 23.7142ZM28.8479 16.5526H29.8479C29.8479 16.0003 29.4002 15.5526 28.8479 15.5526V16.5526ZM39.2147 12.1098L28.2193 20.9973L29.4765 22.5527L40.472 13.6652L39.2147 12.1098ZM28.2193 4.77771L39.2147 13.6652L40.472 12.1098L29.4765 3.22229L28.2193 4.77771ZM29.8479 9.22234V4H27.8479V9.22234H29.8479ZM22.2505 10.2223H28.8479V8.22234H22.2505V10.2223ZM7.85693 25.6159C7.85693 17.5839 14.3803 10.2223 22.2505 10.2223V8.22234C13.1174 8.22234 5.85693 16.6446 5.85693 25.6159H7.85693ZM7.85693 29.7472V25.6159H5.85693V29.7472H7.85693ZM13.6042 22.94L6.22403 28.9729L7.48983 30.5214L14.87 24.4885L13.6042 22.94ZM22.2505 15.5526C17.587 15.5526 13.7472 19.0741 13.2432 23.6037L15.2309 23.8248C15.6235 20.2967 18.6173 17.5526 22.2505 17.5526V15.5526ZM28.8479 15.5526H22.2505V17.5526H28.8479V15.5526ZM29.8479 21.775V16.5526H27.8479V21.775H29.8479Z" fill="#3139CE"/>
<path d="M6.85686 36.3259L6.22824 35.5482C5.99336 35.738 5.85686 36.0239 5.85686 36.3259C5.85686 36.6279 5.99336 36.9137 6.22824 37.1036L6.85686 36.3259ZM17.8523 27.4384H18.8523C18.8523 27.0531 18.6309 26.702 18.2832 26.536C17.9355 26.3699 17.5233 26.4184 17.2237 26.6607L17.8523 27.4384ZM17.8523 45.2134L17.2237 45.9911C17.5233 46.2333 17.9355 46.2818 18.2832 46.1158C18.6309 45.9497 18.8523 45.5987 18.8523 45.2134H17.8523ZM17.8523 39.991V38.991C17.3 38.991 16.8523 39.4388 16.8523 39.991H17.8523ZM39.8433 19.4662H40.8433C40.8433 19.0828 40.6241 18.7332 40.279 18.5662C39.9339 18.3991 39.5237 18.444 39.223 18.6818L39.8433 19.4662ZM32.484 25.2857L31.8637 24.5013C31.647 24.6727 31.5108 24.9261 31.4876 25.2015L32.484 25.2857ZM17.8523 32.6608H16.8523C16.8523 33.213 17.3 33.6608 17.8523 33.6608V32.6608ZM7.48549 37.1036L18.4809 28.2161L17.2237 26.6607L6.22824 35.5482L7.48549 37.1036ZM18.4809 44.4357L7.48549 35.5482L6.22824 37.1036L17.2237 45.9911L18.4809 44.4357ZM16.8523 39.991V45.2134H18.8523V39.991H16.8523ZM24.4496 38.991H17.8523V40.991H24.4496V38.991ZM38.8433 23.5974C38.8433 31.6294 32.3199 38.991 24.4496 38.991V40.991C33.5828 40.991 40.8433 32.5687 40.8433 23.5974H38.8433ZM38.8433 19.4662V23.5974H40.8433V19.4662H38.8433ZM33.1043 26.0701L40.4635 20.2506L39.223 18.6818L31.8637 24.5013L33.1043 26.0701ZM24.4496 33.6608C29.1951 33.6608 33.0879 30.0144 33.4805 25.3699L31.4876 25.2015C31.1818 28.8192 28.147 31.6608 24.4496 31.6608V33.6608ZM17.8523 33.6608H24.4496V31.6608H17.8523V33.6608ZM16.8523 27.4384V32.6608H18.8523V27.4384H16.8523Z" fill="#3139CE"/>
</svg>
