<svg width="48" height="48" viewBox="0 0 48 48" fill="none" xmlns="http://www.w3.org/2000/svg">
<path fill-rule="evenodd" clip-rule="evenodd" d="M13 15.625C13 9.75698 17.701 5 23.5 5C29.299 5 34 9.75697 34 15.625V22H13V15.625ZM23.5 9.25C20.0206 9.25 17.2 12.1042 17.2 15.625V17.75H29.8V15.625C29.8 12.1042 26.9794 9.25 23.5 9.25Z" stroke="#3139CE" stroke-width="2"/>
<path fill-rule="evenodd" clip-rule="evenodd" d="M14.75 17C9.91751 17 6 21.1775 6 26.3306V34.6694C6 39.8225 9.91751 44 14.75 44H32.25C37.0825 44 41 39.8225 41 34.6694V26.3306C41 21.1775 37.0825 17 32.25 17H14.75ZM27.0731 28.7886C27.0731 29.8252 26.6225 30.7565 25.9065 31.3974V34.2634C25.9065 35.552 24.8618 36.5967 23.5731 36.5967C22.2845 36.5967 21.2398 35.552 21.2398 34.2634V31.3974C20.5238 30.7565 20.0731 29.8252 20.0731 28.7886C20.0731 26.8556 21.6401 25.2886 23.5731 25.2886C25.5061 25.2886 27.0731 26.8556 27.0731 28.7886Z" fill="white"/>
<path d="M25.9065 31.3974L25.2396 30.6522C25.0276 30.8419 24.9065 31.1129 24.9065 31.3974H25.9065ZM21.2398 31.3974H22.2398C22.2398 31.1129 22.1187 30.8419 21.9067 30.6522L21.2398 31.3974ZM7 26.3306C7 21.6682 10.5293 18 14.75 18V16C9.30568 16 5 20.6867 5 26.3306H7ZM7 34.6694V26.3306H5V34.6694H7ZM14.75 43C10.5293 43 7 39.3318 7 34.6694H5C5 40.3133 9.30568 45 14.75 45V43ZM32.25 43H14.75V45H32.25V43ZM40 34.6694C40 39.3318 36.4707 43 32.25 43V45C37.6943 45 42 40.3133 42 34.6694H40ZM40 26.3306V34.6694H42V26.3306H40ZM32.25 18C36.4707 18 40 21.6682 40 26.3306H42C42 20.6867 37.6943 16 32.25 16V18ZM14.75 18H32.25V16H14.75V18ZM26.5734 32.1425C27.4924 31.3199 28.0731 30.1214 28.0731 28.7886H26.0731C26.0731 29.5289 25.7526 30.193 25.2396 30.6522L26.5734 32.1425ZM26.9065 34.2634V31.3974H24.9065V34.2634H26.9065ZM23.5731 37.5967C25.4141 37.5967 26.9065 36.1043 26.9065 34.2634H24.9065C24.9065 34.9997 24.3095 35.5967 23.5731 35.5967V37.5967ZM20.2398 34.2634C20.2398 36.1043 21.7322 37.5967 23.5731 37.5967V35.5967C22.8368 35.5967 22.2398 34.9997 22.2398 34.2634H20.2398ZM20.2398 31.3974V34.2634H22.2398V31.3974H20.2398ZM19.0731 28.7886C19.0731 30.1214 19.6539 31.3199 20.5729 32.1425L21.9067 30.6522C21.3937 30.193 21.0731 29.5289 21.0731 28.7886H19.0731ZM23.5731 24.2886C21.0879 24.2886 19.0731 26.3033 19.0731 28.7886H21.0731C21.0731 27.4079 22.1924 26.2886 23.5731 26.2886V24.2886ZM28.0731 28.7886C28.0731 26.3033 26.0584 24.2886 23.5731 24.2886V26.2886C24.9539 26.2886 26.0731 27.4079 26.0731 28.7886H28.0731Z" fill="#3139CE"/>
</svg>
