<svg width="48" height="48" viewBox="0 0 48 48" fill="none" xmlns="http://www.w3.org/2000/svg">
<rect x="6" y="5" width="30.273" height="35.3185" rx="3.42857" fill="white" stroke="#3139CE" stroke-width="2"/>
<path d="M12.7275 17.4543C12.1753 17.4543 11.7275 17.9021 11.7275 18.4543C11.7275 19.0066 12.1753 19.4543 12.7275 19.4543V17.4543ZM29.5459 19.4543C30.0981 19.4543 30.5459 19.0066 30.5459 18.4543C30.5459 17.9021 30.0981 17.4543 29.5459 17.4543V19.4543ZM12.7275 19.4543H29.5459V17.4543H12.7275V19.4543Z" fill="#3139CE"/>
<path d="M12.7275 10.7271C12.1753 10.7271 11.7275 11.1748 11.7275 11.7271C11.7275 12.2793 12.1753 12.7271 12.7275 12.7271V10.7271ZM29.5459 12.7271C30.0981 12.7271 30.5459 12.2793 30.5459 11.7271C30.5459 11.1748 30.0981 10.7271 29.5459 10.7271V12.7271ZM12.7275 12.7271H29.5459V10.7271H12.7275V12.7271Z" fill="#3139CE"/>
<path d="M41.2861 28.7058H31.2602C30.3134 28.7058 29.5459 29.4733 29.5459 30.4201V38.3684C29.5459 40.1115 30.4288 41.736 31.8916 42.6841L35.1854 44.8189C35.8471 45.2479 36.6992 45.2479 37.361 44.8189L40.6548 42.6841C42.1175 41.736 43.0004 40.1115 43.0004 38.3684V30.4201C43.0004 29.4733 42.2329 28.7058 41.2861 28.7058Z" fill="white" stroke="#3139CE" stroke-width="2" stroke-linejoin="round"/>
</svg>
