<svg width="49" height="49" viewBox="0 0 49 49" fill="none" xmlns="http://www.w3.org/2000/svg">
<path fill-rule="evenodd" clip-rule="evenodd" d="M26.1643 3.20922C25.6405 1.59693 23.3595 1.59693 22.8356 3.20922L18.88 15.3834C18.6457 16.1044 17.9738 16.5926 17.2157 16.5926L4.41498 16.5926C2.71971 16.5926 2.01485 18.7619 3.38635 19.7584L9.39936 24.1271H19.1728H23.4254V20.7609L30.5121 26.4889L23.4254 32.217V28.8515H19.1728H14.4571C14.4456 28.9813 14.4195 29.1112 14.378 29.239L10.4224 41.4132C9.89855 43.0255 11.7439 44.3662 13.1154 43.3697L23.4714 35.8457C24.0847 35.4 24.9152 35.4 25.5286 35.8457L35.8846 43.3697C37.2561 44.3662 39.1014 43.0255 38.5775 41.4132L34.6219 29.239C34.3876 28.518 34.6443 27.7281 35.2576 27.2824L45.6136 19.7584C46.9851 18.7619 46.2802 16.5926 44.585 16.5926L31.7843 16.5926C31.0261 16.5926 30.3542 16.1044 30.1199 15.3834L26.1643 3.20922Z" fill="white"/>
<path d="M22.8356 3.20922L23.7867 3.51824L23.7867 3.51824L22.8356 3.20922ZM26.1643 3.20922L27.1154 2.9002L27.1154 2.9002L26.1643 3.20922ZM18.88 15.3834L17.9289 15.0744V15.0744L18.88 15.3834ZM17.2157 16.5926V15.5926V16.5926ZM4.41498 16.5926V17.5926H4.41498L4.41498 16.5926ZM3.38635 19.7584L3.97414 18.9494L3.38635 19.7584ZM9.39936 24.1271L8.81158 24.9361C8.98243 25.0602 9.18819 25.1271 9.39936 25.1271V24.1271ZM23.4254 24.1271V25.1271C23.9777 25.1271 24.4254 24.6794 24.4254 24.1271H23.4254ZM23.4254 20.7609L24.054 19.9831C23.7543 19.7409 23.3422 19.6924 22.9945 19.8585C22.6468 20.0245 22.4254 20.3755 22.4254 20.7609H23.4254ZM30.5121 26.4889L31.1407 27.2667C31.3756 27.0768 31.5121 26.791 31.5121 26.4889C31.5121 26.1869 31.3756 25.9011 31.1407 25.7112L30.5121 26.4889ZM23.4254 32.217H22.4254C22.4254 32.6024 22.6468 32.9534 22.9945 33.1194C23.3422 33.2855 23.7543 33.237 24.054 32.9948L23.4254 32.217ZM23.4254 28.8515H24.4254C24.4254 28.2993 23.9777 27.8515 23.4254 27.8515V28.8515ZM14.4571 28.8515V27.8515C13.9388 27.8515 13.5064 28.2475 13.4609 28.7638L14.4571 28.8515ZM14.378 29.239L13.427 28.93L13.427 28.93L14.378 29.239ZM10.4224 41.4132L11.3735 41.7222L10.4224 41.4132ZM13.1154 43.3697L12.5276 42.5607L13.1154 43.3697ZM23.4714 35.8457L22.8836 35.0367H22.8836L23.4714 35.8457ZM25.5286 35.8457L26.1164 35.0367H26.1164L25.5286 35.8457ZM35.8846 43.3697L35.2968 44.1787L35.8846 43.3697ZM38.5775 41.4132L39.5286 41.1041L38.5775 41.4132ZM34.6219 29.239L33.6709 29.548V29.548L34.6219 29.239ZM35.2576 27.2824L35.8454 28.0914L35.2576 27.2824ZM45.6136 19.7584L46.2014 20.5674L45.6136 19.7584ZM44.585 16.5926V17.5926V16.5926ZM31.7843 16.5926V15.5926V16.5926ZM30.1199 15.3834L31.071 15.0744L30.1199 15.3834ZM23.7867 3.51824C24.0112 2.82726 24.9888 2.82725 25.2133 3.51824L27.1154 2.9002C26.2922 0.3666 22.7078 0.366597 21.8846 2.9002L23.7867 3.51824ZM19.8311 15.6924L23.7867 3.51824L21.8846 2.9002L17.9289 15.0744L19.8311 15.6924ZM17.2157 17.5926C18.407 17.5926 19.4629 16.8255 19.8311 15.6924L17.9289 15.0744C17.8285 15.3834 17.5406 15.5926 17.2157 15.5926V17.5926ZM4.41498 17.5926L17.2157 17.5926V15.5926L4.41498 15.5926L4.41498 17.5926ZM3.97414 18.9494C3.38635 18.5223 3.68843 17.5926 4.41498 17.5926V15.5926C1.75099 15.5926 0.643353 19.0015 2.79857 20.5674L3.97414 18.9494ZM9.98715 23.3181L3.97414 18.9494L2.79857 20.5674L8.81158 24.9361L9.98715 23.3181ZM9.39936 25.1271H19.1728V23.1271H9.39936V25.1271ZM19.1728 25.1271H23.4254V23.1271H19.1728V25.1271ZM24.4254 24.1271V20.7609H22.4254V24.1271H24.4254ZM22.7968 21.5386L29.8834 27.2667L31.1407 25.7112L24.054 19.9831L22.7968 21.5386ZM29.8834 25.7112L22.7968 31.4393L24.054 32.9948L31.1407 27.2667L29.8834 25.7112ZM24.4254 32.217V28.8515H22.4254V32.217H24.4254ZM23.4254 27.8515H19.1728V29.8515H23.4254V27.8515ZM19.1728 27.8515H14.4571V29.8515H19.1728V27.8515ZM15.3291 29.548C15.3942 29.3478 15.4352 29.1436 15.4532 28.9393L13.4609 28.7638C13.4561 28.819 13.4449 28.8747 13.427 28.93L15.3291 29.548ZM11.3735 41.7222L15.3291 29.548L13.427 28.93L9.47136 41.1041L11.3735 41.7222ZM12.5276 42.5607C11.9398 42.9878 11.149 42.4132 11.3735 41.7222L9.47136 41.1041C8.64814 43.6377 11.548 45.7446 13.7032 44.1787L12.5276 42.5607ZM22.8836 35.0367L12.5276 42.5607L13.7032 44.1787L24.0591 36.6547L22.8836 35.0367ZM26.1164 35.0367C25.1525 34.3364 23.8474 34.3364 22.8836 35.0367L24.0591 36.6547C24.322 36.4637 24.6779 36.4637 24.9408 36.6547L26.1164 35.0367ZM36.4723 42.5607L26.1164 35.0367L24.9408 36.6547L35.2968 44.1787L36.4723 42.5607ZM37.6265 41.7222C37.851 42.4132 37.0601 42.9878 36.4723 42.5607L35.2968 44.1787C37.452 45.7446 40.3518 43.6377 39.5286 41.1041L37.6265 41.7222ZM33.6709 29.548L37.6265 41.7222L39.5286 41.1041L35.573 28.93L33.6709 29.548ZM34.6699 26.4734C33.706 27.1737 33.3027 28.4149 33.6709 29.548L35.573 28.93C35.4726 28.621 35.5826 28.2824 35.8454 28.0914L34.6699 26.4734ZM45.0258 18.9494L34.6699 26.4734L35.8454 28.0914L46.2014 20.5674L45.0258 18.9494ZM44.585 17.5926C45.3115 17.5926 45.6136 18.5223 45.0258 18.9494L46.2014 20.5674C48.3566 19.0016 47.249 15.5926 44.585 15.5926V17.5926ZM31.7843 17.5926L44.585 17.5926V15.5926L31.7843 15.5926V17.5926ZM29.1689 15.6924C29.537 16.8255 30.5929 17.5926 31.7843 17.5926V15.5926C31.4594 15.5926 31.1714 15.3834 31.071 15.0744L29.1689 15.6924ZM25.2133 3.51824L29.1689 15.6924L31.071 15.0744L27.1154 2.9002L25.2133 3.51824Z" fill="#3139CE"/>
</svg>
