<svg width="48" height="48" viewBox="0 0 48 48" fill="none" xmlns="http://www.w3.org/2000/svg">
<path d="M31.5 10.0113C31.5 9.09883 32.0175 8.26525 32.8353 7.86044L39.1902 4.71476C40.2537 4.18835 41.5 4.96209 41.5 6.1487V30.1315C41.5 31.044 40.9825 31.8776 40.1647 32.2824L33.8098 35.4281C32.7463 35.9545 31.5 35.1807 31.5 33.9941V10.0113Z" stroke="#3139CE" stroke-width="2"/>
<path d="M27.5 10.0113C27.5 9.09883 26.9825 8.26525 26.1647 7.86044L19.8098 4.71476C18.7463 4.18835 17.5 4.96209 17.5 6.1487V30.1315C17.5 31.044 18.0175 31.8776 18.8353 32.2824L25.1902 35.4281C26.2537 35.9545 27.5 35.1807 27.5 33.9941V10.0113Z" stroke="#3139CE" stroke-width="2"/>
<path d="M3.5 10.0113C3.5 9.09883 4.01749 8.26525 4.8353 7.86044L11.1902 4.71476C12.2537 4.18835 13.5 4.96209 13.5 6.1487V30.1315C13.5 31.044 12.9825 31.8776 12.1647 32.2824L5.8098 35.4281C4.74634 35.9545 3.5 35.1807 3.5 33.9941V10.0113Z" stroke="#3139CE" stroke-width="2"/>
<mask id="path-4-outside-1_1_13565" maskUnits="userSpaceOnUse" x="30.5" y="26.4285" width="16" height="20" fill="black">
<rect fill="white" x="30.5" y="26.4285" width="16" height="20"/>
<path d="M44.5 34.4631C44.5 39.0714 40.5 43.5714 38.5 44.4285C36.5 43.5714 32.5 39.0714 32.5 34.4631C32.5 31.1303 35.1863 28.4285 38.5 28.4285C41.8137 28.4285 44.5 31.1303 44.5 34.4631Z"/>
</mask>
<path d="M44.5 34.4631C44.5 39.0714 40.5 43.5714 38.5 44.4285C36.5 43.5714 32.5 39.0714 32.5 34.4631C32.5 31.1303 35.1863 28.4285 38.5 28.4285C41.8137 28.4285 44.5 31.1303 44.5 34.4631Z" fill="white"/>
<path d="M38.5 44.4285L37.7121 46.2668C38.2152 46.4824 38.7848 46.4824 39.2879 46.2668L38.5 44.4285ZM42.5 34.4631C42.5 36.2178 41.7213 38.1001 40.6048 39.7152C39.4509 41.3845 38.215 42.3747 37.7121 42.5902L39.2879 46.2668C40.785 45.6252 42.5491 43.9368 43.8952 41.9898C45.2787 39.9884 46.5 37.3167 46.5 34.4631H42.5ZM39.2879 42.5902C38.785 42.3747 37.5491 41.3845 36.3952 39.7152C35.2787 38.1001 34.5 36.2178 34.5 34.4631H30.5C30.5 37.3167 31.7213 39.9884 33.1048 41.9898C34.4509 43.9368 36.215 45.6252 37.7121 46.2668L39.2879 42.5902ZM34.5 34.4631C34.5 32.224 36.3017 30.4285 38.5 30.4285V26.4285C34.0709 26.4285 30.5 30.0366 30.5 34.4631H34.5ZM38.5 30.4285C40.6983 30.4285 42.5 32.224 42.5 34.4631H46.5C46.5 30.0366 42.9291 26.4285 38.5 26.4285V30.4285Z" fill="#3139CE" mask="url(#path-4-outside-1_1_13565)"/>
<circle cx="38.5" cy="34.5714" r="2.5" fill="white" stroke="#3139CE" stroke-width="2"/>
</svg>
