<svg width="443" height="234" viewBox="0 0 443 234" fill="none" xmlns="http://www.w3.org/2000/svg">
<path d="M298.932 66.0148C310.431 89.18 346.883 94.4919 380.35 77.8791C413.818 61.2664 437.233 11.6119 420.127 5.85485C403.022 0.0979851 402.147 42.8253 368.68 59.438C334.545 79.5454 290.836 46.1306 298.932 66.0148Z" fill="#FFB96A"/>
<g opacity="0.6" filter="url(#filter0_f_1_7237)">
<ellipse cx="255.337" cy="154.979" rx="99.5403" ry="35.1604" transform="rotate(-5.45233 255.337 154.979)" fill="#262973"/>
</g>
<path d="M156.721 150.082C144.976 157.908 137.157 162.426 137.208 168.012C137.283 176.191 151.341 174.178 160.144 169.61C168.11 165.476 174.754 169.176 180.311 159.549C181.311 157.817 181.108 154.867 180.311 151.309C176.553 148.697 170.348 143.344 156.721 150.082Z" fill="url(#paint0_linear_1_7237)"/>
<path d="M153.672 134.67C147.391 139.504 137.682 144.243 132 150.43C109.5 174.93 66 182.733 34.9998 171.93C3.9997 161.127 4.4999 129.17 48.9995 134.67" stroke="#FF8401" stroke-width="2.04752" stroke-linecap="square"/>
<path d="M181.814 111.7L181.026 112.354L182.334 113.929L183.122 113.275L181.814 111.7ZM187.07 110.144L187.886 109.525L186.649 107.893L185.833 108.512L187.07 110.144ZM183.122 113.275C184.404 112.211 185.721 111.166 187.07 110.144L185.833 108.512C184.46 109.553 183.119 110.616 181.814 111.7L183.122 113.275Z" fill="#FF8401"/>
<path fill-rule="evenodd" clip-rule="evenodd" d="M156.876 151.961C162.984 171.439 206.798 189.139 286.27 173.346C337.618 163.142 350.311 130.758 350.193 109.003C349.119 97.297 346.859 87.7862 342.715 82.5637C332.809 70.0817 297.863 45.0686 254.087 71.2784C248.814 74.4354 241.689 80.3774 234.228 86.5991C222.069 96.7388 209.019 107.622 201.645 108.403C156.512 113.186 151.39 134.47 156.876 151.961Z" fill="#FFB96A"/>
<mask id="mask0_1_7237" style="mask-type:alpha" maskUnits="userSpaceOnUse" x="147" y="57" width="204" height="122">
<path fill-rule="evenodd" clip-rule="evenodd" d="M147.712 119.715C147.545 116.925 151.075 117.413 157.364 119.556C159.621 120.324 161.668 121.214 163.366 122.038C168.098 117.614 175.153 113.852 185.259 111.252C185.427 109.727 185.665 108.079 186.002 106.375C187.456 99.0158 188.973 95.2894 191.61 97.0291C193.371 98.1911 197.607 103.714 200.852 108.492C201.117 108.462 201.382 108.433 201.65 108.405C208.828 107.644 221.385 96.4749 233.262 85.9094L233.262 85.9094C241.073 78.9612 248.591 72.2743 254.092 68.9806C297.867 42.7708 332.814 67.7839 342.719 80.2659C346.864 85.4884 349.123 94.9992 350.198 106.705C350.316 128.46 334.004 164.292 282.442 173.348C207.125 186.576 162.989 171.441 156.88 151.963C155.393 147.222 154.686 142.203 155.343 137.309C153.081 133.847 147.88 122.502 147.712 119.715Z" fill="#F9B466"/>
</mask>
<g mask="url(#mask0_1_7237)">
<path fill-rule="evenodd" clip-rule="evenodd" d="M147.713 119.715C147.545 116.925 151.075 117.413 157.365 119.556C159.621 120.325 161.668 121.214 163.366 122.039C168.098 117.614 175.154 113.852 185.26 111.253C185.427 109.727 185.666 108.079 186.003 106.375C187.457 99.0163 188.973 95.2899 191.61 97.0296C193.372 98.1915 197.607 103.714 200.853 108.492C201.117 108.463 201.383 108.434 201.65 108.405C208.829 107.645 221.385 96.4753 233.263 85.9099L233.263 85.9098C241.074 78.9617 248.591 72.2747 254.092 68.981C297.868 42.7713 332.815 67.7844 342.72 80.2664C346.864 85.4888 349.124 94.9996 350.198 106.706C350.316 128.46 334.005 164.292 282.442 173.348C207.126 186.577 162.989 171.442 156.881 151.963C155.394 147.223 154.686 142.203 155.344 137.309C153.082 133.848 147.88 122.502 147.713 119.715Z" fill="#FFB96A"/>
<ellipse cx="146.415" cy="116.803" rx="23.2306" ry="28.6" transform="rotate(-23.2816 146.415 116.803)" fill="#E5A05C"/>
<ellipse cx="255.987" cy="72.3307" rx="34.4802" ry="45.3801" transform="rotate(-108.965 255.987 72.3307)" fill="#E5A05C"/>
</g>
<path d="M152.495 152.29C152.019 151.984 151.386 152.121 151.08 152.596C150.774 153.072 150.911 153.705 151.386 154.011L152.495 152.29ZM178.844 179.246C171.748 176.714 167.867 171.86 164.418 166.646C161.013 161.5 157.935 155.793 152.495 152.29L151.386 154.011C156.363 157.216 159.148 162.393 162.71 167.776C166.228 173.093 170.418 178.414 178.156 181.174L178.844 179.246Z" fill="#FF8401"/>
<path d="M207.155 130.064C207.155 130.064 215.812 126.825 224.789 129.508" stroke="#E5A05C" stroke-width="1.37628" stroke-miterlimit="10" stroke-linecap="round"/>
<path d="M204.834 125.858C204.834 125.858 210.765 118.783 219.91 116.685" stroke="#E5A05C" stroke-width="1.37628" stroke-miterlimit="10" stroke-linecap="round"/>
<path d="M164.415 147C164.415 147 155.785 150.308 150.856 158.256" stroke="#E5A05C" stroke-width="1.37628" stroke-miterlimit="10" stroke-linecap="round"/>
<path d="M163.25 142.397C163.25 142.397 154.184 140.589 145.738 144.668" stroke="#E5A05C" stroke-width="1.37628" stroke-miterlimit="10" stroke-linecap="round"/>
<path d="M183.316 138.683C182.317 139.173 177.027 138.048 181.874 135.715C186.733 133.365 184.321 138.22 183.316 138.683Z" fill="#3F3D56"/>
<path d="M189.316 128.65C189.978 128.554 190.436 127.941 190.34 127.281C190.243 126.621 189.629 126.164 188.967 126.26C188.305 126.356 187.847 126.969 187.943 127.629C188.04 128.289 188.654 128.746 189.316 128.65Z" fill="#3F3D56"/>
<path d="M311.394 110.51C300.283 116.925 296.968 131.984 303.99 144.146C307.51 150.243 311.652 155.462 317.197 158.35C310.503 170.318 306.08 181.224 312.677 184.523C317.774 187.072 334.706 176.935 341.373 158.35C351.84 139.24 356.743 116.04 345.48 88.8529C342.955 82.7598 321.338 98.901 311.394 110.51Z" fill="#FFB96A"/>
<path d="M311.393 110.51C300.282 116.925 296.967 131.985 303.989 144.147C307.509 150.244 311.651 155.462 317.196 158.35C310.501 170.319 306.078 181.224 312.675 184.523C317.773 187.072 334.705 176.935 341.372 158.35C349.399 143.695 356.581 119.118 345.806 87.8135" stroke="#E5A05C" stroke-width="2.04752" stroke-linecap="round"/>
<path d="M171.551 136.007C172.213 135.911 172.671 135.298 172.575 134.638C172.478 133.978 171.863 133.521 171.202 133.618C170.54 133.714 170.082 134.327 170.178 134.987C170.275 135.647 170.889 136.104 171.551 136.007Z" fill="#3F3D56"/>
<path d="M216.434 156.499C227.432 153.024 222.871 158.661 225.015 166.881C242.765 158.312 277.306 145.15 273.472 161.057C269.639 176.965 239.768 181.764 225.311 182.175C204.232 189.098 181.137 192.441 178.992 184.221C176.495 174.647 197.747 166.862 216.434 156.499Z" fill="url(#paint1_linear_1_7237)"/>
<path d="M216.433 156.496C197.747 166.86 176.494 174.644 178.992 184.218C179.152 184.834 179.431 185.386 179.818 185.875M179.818 185.875C184.587 191.917 205.811 188.577 225.311 182.172C240.395 181.545 273.435 176.243 280.058 151.802M179.818 185.875C180.767 185.402 181.96 184.393 184.912 183.336M179.107 180.734C180.137 180.04 182.155 179.081 183.168 178.71" stroke="#E5A05C" stroke-width="2.04752" stroke-linecap="round"/>
<path d="M246.156 116.809L246.833 116.042L246.156 116.809ZM257.254 186.061L257.417 185.051L257.254 186.061ZM198.918 163.857L199.379 164.771L198.918 163.857ZM293.666 89.9387L293.269 90.8823L293.666 89.9387ZM370.118 65.6737L369.188 65.2469L370.118 65.6737ZM397.454 72.9339L396.606 72.36L397.454 72.9339ZM393.96 33.3945L394.624 34.173L393.96 33.3945ZM417.937 70.5456C417.764 71.0841 418.061 71.6603 418.6 71.8327C419.138 72.0051 419.714 71.7083 419.887 71.1698L417.937 70.5456ZM201.203 107.05C200.655 107.19 200.324 107.747 200.464 108.295C200.604 108.843 201.162 109.174 201.709 109.034L201.203 107.05ZM190.393 167.805C189.946 168.152 189.865 168.795 190.211 169.241C190.558 169.688 191.201 169.769 191.647 169.423L190.393 167.805ZM386.545 46.9315C387.025 46.6333 387.173 46.0021 386.875 45.5218C386.577 45.0414 385.946 44.8937 385.465 45.1919L386.545 46.9315ZM404.061 60.8166C404.217 60.273 403.902 59.7062 403.359 59.5506C402.815 59.395 402.248 59.7095 402.093 60.2531L404.061 60.8166ZM397.818 31.481C398.252 31.1187 398.31 30.4731 397.948 30.039C397.585 29.605 396.94 29.5468 396.506 29.9091L397.818 31.481ZM419.882 39.0163C419.703 38.4802 419.122 38.1913 418.586 38.371C418.05 38.5507 417.761 39.1309 417.941 39.667L419.882 39.0163ZM245.478 117.577C266.201 135.861 272.797 153.55 272.376 166.191C272.166 172.523 270.201 177.57 267.403 180.853C264.611 184.129 261.02 185.632 257.417 185.051L257.091 187.072C261.535 187.789 265.801 185.889 268.961 182.181C272.116 178.48 274.2 172.96 274.423 166.259C274.869 152.837 267.868 134.602 246.833 116.042L245.478 117.577ZM257.417 185.051C252.403 184.242 248.514 181.468 244.902 177.888C243.094 176.095 241.378 174.123 239.626 172.112C237.883 170.112 236.104 168.072 234.206 166.198C230.403 162.444 226.04 159.269 220.27 158.247C214.502 157.225 207.497 158.384 198.457 162.943L199.379 164.771C208.176 160.335 214.722 159.344 219.913 160.263C225.102 161.182 229.104 164.039 232.767 167.655C234.602 169.466 236.331 171.447 238.082 173.457C239.825 175.457 241.59 177.487 243.461 179.342C247.207 183.057 251.469 186.165 257.091 187.072L257.417 185.051ZM293.269 90.8823C314.492 99.8183 331.349 99.3671 344.24 93.7356C357.109 88.1138 365.867 77.3991 371.049 66.1005L369.188 65.2469C364.155 76.2198 355.711 86.4902 343.42 91.8593C331.152 97.2188 314.89 97.7644 294.063 88.9952L293.269 90.8823ZM396.606 72.36C393.229 77.348 389.797 78.6383 387.104 78.0049C384.323 77.3507 381.748 74.5311 380.395 70.0477C377.716 61.1705 380.153 46.534 394.624 34.173L393.295 32.6161C378.29 45.4322 375.49 60.8826 378.435 70.6393C379.894 75.4729 382.847 79.107 386.636 79.998C390.513 80.9099 394.694 78.8368 398.301 73.5078L396.606 72.36ZM201.709 109.034C217.002 105.126 232.774 106.367 245.478 117.577L246.833 116.042C233.462 104.244 216.916 103.035 201.203 107.05L201.709 109.034ZM198.457 162.943C194.938 164.718 192.297 166.328 190.393 167.805L191.647 169.423C193.41 168.056 195.925 166.513 199.379 164.771L198.457 162.943ZM371.049 66.1005C373.148 61.5231 376.044 57.3319 378.921 53.972C381.808 50.6007 384.628 48.1216 386.545 46.9315L385.465 45.1919C383.306 46.5322 380.33 49.1784 377.366 52.6402C374.392 56.1134 371.382 60.463 369.188 65.2469L371.049 66.1005ZM402.093 60.2531C401.339 62.8854 399.834 67.5904 396.606 72.36L398.301 73.5078C401.709 68.4743 403.285 63.5279 404.061 60.8166L402.093 60.2531ZM394.624 34.173C395.303 33.5935 396.101 32.9208 396.73 32.3921C397.045 32.1279 397.317 31.9 397.51 31.7382C397.607 31.6573 397.684 31.593 397.737 31.5489C397.763 31.5268 397.783 31.5098 397.797 31.4984C397.804 31.4926 397.809 31.4883 397.813 31.4854C397.814 31.4839 397.816 31.4828 397.817 31.4821C397.817 31.4817 397.817 31.4815 397.817 31.4813C397.818 31.4812 397.818 31.4811 397.818 31.4811C397.818 31.4811 397.818 31.481 397.818 31.481C397.818 31.481 397.818 31.481 397.162 30.6951C396.506 29.9091 396.506 29.9091 396.506 29.9091C396.506 29.9092 396.506 29.9092 396.506 29.9092C396.506 29.9092 396.506 29.9093 396.505 29.9094C396.505 29.9096 396.505 29.9099 396.504 29.9103C396.503 29.911 396.502 29.9122 396.5 29.9136C396.497 29.9166 396.491 29.921 396.485 29.9268C396.471 29.9384 396.45 29.9555 396.424 29.9777C396.37 30.0221 396.293 30.0868 396.196 30.168C396.002 30.3304 395.729 30.5591 395.413 30.8242C394.783 31.3541 393.979 32.0311 393.295 32.6161L394.624 34.173ZM197.07 103.218C207.379 95.4209 223.884 89.1418 241.645 86.421C259.402 83.7007 278.257 84.5616 293.269 90.8823L294.063 88.9952C278.588 82.4795 259.321 81.6418 241.335 84.3971C223.353 87.1517 206.495 93.5223 195.834 101.585L197.07 103.218ZM417.941 39.667C420.913 48.5337 421.175 60.4292 417.937 70.5456L419.887 71.1698C423.257 60.6405 422.993 48.2983 419.882 39.0163L417.941 39.667Z" fill="#FF8401"/>
<path d="M46.5339 145.845C60.4952 141.021 67.8842 125.767 63.006 111.798C58.1278 97.8292 42.871 90.4176 28.9097 95.2413C14.9484 100.065 7.55938 115.319 12.4376 129.288C17.3157 143.257 32.584 150.682 46.5339 145.845Z" fill="#FF8400"/>
<path d="M45.7518 119.362C45.3042 118.843 44.6951 118.525 44.026 118.419C43.6109 118.338 43.1652 118.306 42.7371 118.352C42.9521 118.13 43.1442 117.881 43.2881 117.602C43.4957 117.201 43.6182 116.752 43.6138 116.291C43.598 115.816 43.4894 115.37 43.3275 114.944C43.0809 114.216 42.6208 113.567 42.0272 113.098C41.403 112.676 40.682 112.449 39.9264 112.436C39.1988 112.401 38.4697 112.506 37.7671 112.728L36.744 109.797L35.3712 111.563L35.9972 113.354L34.5869 113.851L33.9318 111.967L31.7431 111.54L32.7662 114.471L28.8974 115.805L30.9102 117.584C31.1656 117.469 31.4527 117.421 31.7232 117.41C31.8756 117.426 31.9974 117.49 32.1026 117.59C32.2712 117.824 32.3864 118.079 32.4596 118.368L35.2306 126.314C35.3458 126.569 35.4191 126.858 35.4161 127.139C35.3893 127.277 35.4158 127.395 35.2899 127.497C35.1754 127.613 35.164 127.599 34.7905 127.741L33.9992 130.475L37.8426 129.139L38.8658 132.07L40.6864 131.449L39.6633 128.518L41.085 128.035L42.1082 130.967L43.8895 130.355L42.8689 127.398C43.7622 127.067 44.5921 126.601 45.3447 126.012C46.03 125.455 46.5416 124.714 46.8183 123.885C47.0215 123.022 46.9707 122.134 46.6976 121.288C46.4993 120.59 46.1802 119.943 45.7518 119.362ZM35.4279 116.303L35.4076 116.25L36.6439 115.825C37.3351 115.589 39.5716 114.537 40.3092 116.493C41.0353 118.434 37.9188 119.435 37.9188 119.435L36.6825 119.86L36.6332 119.714L35.4279 116.303ZM37.373 121.9L38.7947 121.418C39.0869 121.32 40.0932 121.013 40.4502 120.908C40.5963 120.859 40.7652 120.838 40.9062 120.839C40.9569 120.845 41.0217 120.838 41.0725 120.844C41.329 120.844 41.569 120.881 41.7924 120.955C41.9422 120.996 42.0894 121.062 42.2086 121.151C42.3989 121.298 42.5726 121.482 42.7184 121.689C42.8185 121.84 42.8932 121.988 42.9539 122.148C43.0754 122.468 43.1181 122.805 43.0478 123.117C42.9506 123.568 42.7176 123.966 42.3794 124.265C41.7449 124.827 41.0103 125.239 40.2124 125.516L38.7907 125.998L37.373 121.9Z" fill="white"/>
<defs>
<filter id="filter0_f_1_7237" x="130.189" y="92.7136" width="250.294" height="124.531" filterUnits="userSpaceOnUse" color-interpolation-filters="sRGB">
<feFlood flood-opacity="0" result="BackgroundImageFix"/>
<feBlend mode="normal" in="SourceGraphic" in2="BackgroundImageFix" result="shape"/>
<feGaussianBlur stdDeviation="13" result="effect1_foregroundBlur_1_7237"/>
</filter>
<linearGradient id="paint0_linear_1_7237" x1="108.077" y1="184.15" x2="111.528" y2="132.107" gradientUnits="userSpaceOnUse">
<stop offset="0.265625" stop-color="#E7A25D"/>
<stop offset="0.729167" stop-color="#FFB96A"/>
</linearGradient>
<linearGradient id="paint1_linear_1_7237" x1="146.639" y1="202.229" x2="196.074" y2="237.598" gradientUnits="userSpaceOnUse">
<stop offset="0.0677083" stop-color="#E7A25D"/>
<stop offset="0.572917" stop-color="#FFB96A"/>
</linearGradient>
</defs>
</svg>
