<svg width="705" height="436" viewBox="0 0 705 436" fill="none" xmlns="http://www.w3.org/2000/svg">
<path opacity="0.8" d="M194.988 136.976C188.243 147.938 138.823 156.295 94.804 147.237C67.3448 141.587 48.2946 115.402 209.261 120.864C229.126 121.538 251.152 127.783 255.363 132.937C259.573 138.091 260.303 164.222 73.329 165.27" stroke="#35438E" stroke-width="2" stroke-linecap="round"/>
<g opacity="0.88">
<circle r="47" transform="matrix(0.946124 0.323806 -0.325673 0.945482 629.161 301.657)" fill="#41C6A7"/>
<g clip-path="url(#clip0_856_39)">
<path d="M637.293 295.428L639.46 289.138L654.308 294.22L657.609 284.636L617.177 270.798L613.876 280.382L628.726 285.465L626.561 291.75C614.307 288.156 604.435 287.366 603.48 290.14C602.525 292.914 610.806 298.337 622.684 303.006L615.743 323.154L626.481 326.829L633.422 306.679C645.654 310.263 655.507 311.049 656.461 308.277C657.416 305.506 649.157 300.093 637.296 295.431L637.293 295.428ZM634.009 304.972L634.011 304.967C633.702 304.882 632.114 304.44 628.649 303.254C625.878 302.306 623.955 301.562 623.28 301.293L623.277 301.301C612.772 297.194 605.433 292.672 606.174 290.52C606.916 288.367 615.494 289.295 626.313 292.486L623.894 299.509C624.576 299.795 626.534 300.592 629.291 301.536C632.602 302.669 634.313 303.105 634.628 303.183L637.047 296.159C647.53 300.26 654.85 304.778 654.112 306.923C653.373 309.068 644.807 308.149 634.011 304.967" fill="white"/>
</g>
<circle r="48" transform="matrix(0.946116 0.323828 -0.325696 0.945475 629.78 301.927)" fill="#5B64FF"/>
<g clip-path="url(#clip1_856_39)">
<path d="M640.66 271.494L639.803 272.735L626.084 312.56L626.329 313.095L647.685 308.189L640.66 271.494Z" fill="white"/>
<path d="M640.276 271.362L611.733 295.883L625.945 312.963L632.604 293.633L640.276 271.362Z" fill="white"/>
<path d="M624.945 316.573L624.63 316.781L619.664 331.197L619.649 331.948L646.526 311.552L624.945 316.573Z" fill="white"/>
<path d="M619.431 331.873L624.727 316.499L610.574 299.247L619.431 331.873Z" fill="white"/>
</g>
</g>
<path d="M176 145C192.569 145 206 131.569 206 115C206 98.4315 192.569 85 176 85C159.431 85 146 98.4315 146 115C146 131.569 159.431 145 176 145Z" fill="#354390"/>
<path opacity="0.8" d="M188.777 102.186L184.325 104.507L162.811 115.707C162.505 113.301 162.859 110.854 163.833 108.64C164.808 106.427 166.364 104.534 168.33 103.172C170.296 101.81 172.593 101.034 174.965 100.929C177.337 100.823 179.691 101.394 181.765 102.577L184.314 101.25L184.694 101.051C182.276 99.2571 179.407 98.2082 176.424 98.0279C173.442 97.8476 170.472 98.5434 167.864 100.033C165.256 101.523 163.12 103.744 161.707 106.435C160.294 109.126 159.665 112.173 159.892 115.218C159.934 115.791 159.81 116.364 159.535 116.864C159.26 117.365 158.846 117.771 158.345 118.032L157 118.734V122.003L160.958 119.94L162.24 119.27L163.503 118.612L186.182 106.8L188.73 105.474L193.998 102.731V99.4636L188.777 102.186ZM194 106.001L164.794 121.2L162.246 122.528L157.002 125.264V128.531L162.21 125.819L166.664 123.499L188.2 112.281C188.511 114.692 188.16 117.143 187.185 119.362C186.211 121.58 184.652 123.477 182.682 124.841C180.713 126.204 178.411 126.981 176.035 127.084C173.658 127.186 171.3 126.611 169.226 125.421L169.068 125.507L166.304 126.948C168.722 128.742 171.593 129.792 174.576 129.972C177.559 130.152 180.53 129.456 183.139 127.966C185.747 126.475 187.883 124.253 189.296 121.561C190.708 118.869 191.337 115.82 191.108 112.774C191.066 112.202 191.19 111.63 191.465 111.13C191.74 110.629 192.153 110.223 192.653 109.962L194 109.261V106.003V106.001Z" fill="white"/>
<path opacity="0.88" d="M596.763 333.78C579.421 323.791 562.432 280.161 583.039 258.159C609.14 230.291 639.75 252.158 639 204" stroke="#5B64FF" stroke-width="2" stroke-linecap="round"/>
<path d="M456.865 137.047C471.807 167.223 519.197 174.131 562.713 152.476C606.229 130.821 636.689 66.1221 614.452 58.6277C592.215 51.1335 591.063 106.8 547.546 128.455C503.161 154.663 446.347 111.145 456.865 137.047Z" fill="#FFB96A"/>
<g opacity="0.6" filter="url(#filter0_f_856_39)">
<ellipse rx="129.5" ry="46" transform="matrix(0.995453 -0.0952531 0.0947827 0.995498 399.271 253.458)" fill="#1F1F41"/>
</g>
<path d="M270.475 247.309C255.155 257.541 244.956 263.448 245.024 270.752C245.123 281.448 263.462 278.818 274.944 272.846C285.335 267.442 294.002 272.281 301.251 259.693C302.555 257.429 302.289 253.571 301.249 248.918C296.345 245.501 288.251 238.501 270.475 247.309Z" fill="url(#paint0_linear_856_39)"/>
<path d="M73 272.349C86.9079 286.891 173.625 302.673 244.565 245.68C253.121 238.805 258.805 233.332 267 227" stroke="#FF8401" stroke-width="2.04752" stroke-linecap="square"/>
<path d="M303.343 197.215L302.558 197.872L303.872 199.442L304.657 198.785L303.343 197.215ZM309.622 194.813L310.435 194.191L309.191 192.565L308.378 193.187L309.622 194.813ZM304.657 198.785C306.269 197.435 307.925 196.11 309.622 194.813L308.378 193.187C306.658 194.502 304.979 195.845 303.343 197.215L304.657 198.785Z" fill="#FF8401"/>
<path fill-rule="evenodd" clip-rule="evenodd" d="M270.897 249.384C278.872 274.804 335.981 297.93 439.536 277.381C506.443 264.104 522.962 221.858 522.792 193.473C521.383 178.198 518.432 165.787 513.027 158.969C500.11 142.676 454.55 110.014 397.522 144.18C390.653 148.296 381.372 156.044 371.654 164.156C355.816 177.378 338.818 191.568 329.208 192.582C270.395 198.791 263.736 226.558 270.897 249.384Z" fill="#FFB96A"/>
<mask id="mask0_856_39" style="mask-type:alpha" maskUnits="userSpaceOnUse" x="258" y="125" width="265" height="159">
<path fill-rule="evenodd" clip-rule="evenodd" d="M258.239 207.526C257.997 203.93 262.636 204.587 270.913 207.4C273.733 208.358 276.305 209.455 278.472 210.485C284.648 204.461 294.035 199.341 307.679 195.849C307.894 193.836 308.204 191.657 308.647 189.402C310.526 179.836 312.497 174.995 315.951 177.265C318.265 178.787 323.849 186.024 328.112 192.262C328.381 192.233 328.651 192.204 328.922 192.175C338.274 191.188 354.625 176.63 370.092 162.859C380.263 153.803 390.052 145.088 397.217 140.796C454.229 106.645 499.776 139.291 512.69 155.577C518.093 162.391 521.043 174.796 522.452 190.064C522.621 218.436 501.395 265.156 434.225 276.93C336.111 294.128 278.599 274.358 270.627 248.95C268.749 242.966 267.822 236.642 268.537 230.456C268.496 230.396 268.455 230.335 268.413 230.273C265.42 225.811 258.482 211.123 258.239 207.526Z" fill="#F9B466"/>
</mask>
<g mask="url(#mask0_856_39)">
<path fill-rule="evenodd" clip-rule="evenodd" d="M258.239 207.526C257.997 203.93 262.636 204.587 270.913 207.4C273.733 208.358 276.305 209.455 278.472 210.485C284.648 204.461 294.035 199.341 307.679 195.849C307.894 193.836 308.204 191.657 308.647 189.402C310.526 179.836 312.497 174.995 315.951 177.265C318.265 178.787 323.849 186.024 328.112 192.262C328.381 192.233 328.651 192.204 328.922 192.175C338.274 191.188 354.625 176.63 370.092 162.859C380.263 153.803 390.052 145.088 397.217 140.796C454.229 106.645 499.776 139.291 512.69 155.577C518.093 162.391 521.043 174.796 522.452 190.064C522.621 218.436 501.395 265.156 434.225 276.93C336.111 294.128 278.599 274.358 270.627 248.95C268.749 242.966 267.822 236.642 268.537 230.456C268.496 230.396 268.455 230.335 268.413 230.273C265.42 225.811 258.482 211.123 258.239 207.526Z" fill="#FFB96A"/>
<ellipse rx="30.5" ry="37.5" transform="matrix(0.918533 -0.395345 0.395154 0.918615 256.833 203.39)" fill="#E5A05C"/>
<ellipse rx="45" ry="59" transform="matrix(-0.325 -0.945714 0.94572 -0.324983 399.171 145.269)" fill="#E5A05C"/>
</g>
<path d="M265.547 250.135C265.069 249.833 264.437 249.975 264.135 250.453C263.833 250.931 263.975 251.563 264.453 251.865L265.547 250.135ZM300.338 285.034C290.884 281.723 285.721 275.371 281.167 268.615C276.655 261.922 272.644 254.62 265.547 250.135L264.453 251.865C271.084 256.057 274.799 262.832 279.469 269.759C284.096 276.623 289.57 283.432 299.662 286.966L300.338 285.034Z" fill="#FF8401"/>
<path d="M337 223C337 223 348.071 218.988 359.657 222.589" stroke="#E5A05C" stroke-width="1.37628" stroke-miterlimit="10" stroke-linecap="round"/>
<path d="M334 218C334 218 341.521 208.997 353.067 206.284" stroke="#E5A05C" stroke-width="1.37628" stroke-miterlimit="10" stroke-linecap="round"/>
<path d="M281 245C281 245 269.38 249.254 262.789 259.593" stroke="#E5A05C" stroke-width="1.37628" stroke-miterlimit="10" stroke-linecap="round"/>
<path d="M280 239C280 239 267.95 236.503 256.856 241.484" stroke="#E5A05C" stroke-width="1.37628" stroke-miterlimit="10" stroke-linecap="round"/>
<path d="M308.801 233.272C307.531 233.879 300.748 232.366 306.911 229.479C313.087 226.571 310.079 232.7 308.801 233.272Z" fill="#3F3D56"/>
<path d="M315.916 220.752C316.736 220.632 317.304 219.87 317.184 219.051C317.065 218.231 316.304 217.663 315.484 217.783C314.665 217.903 314.097 218.665 314.216 219.484C314.335 220.304 315.096 220.872 315.916 220.752Z" fill="#3F3D56"/>
<path d="M472.236 194.943C457.714 203.347 453.341 223.004 462.468 238.85C467.044 246.793 472.434 253.588 479.662 257.339C470.887 272.974 465.081 287.215 473.681 291.498C480.326 294.808 502.456 281.531 511.216 257.263C524.936 232.3 531.407 202.018 516.79 166.584C513.514 158.643 485.25 179.768 472.236 194.943Z" fill="#FFB96A"/>
<path d="M472.307 195.617C457.788 204.019 453.405 223.652 462.516 239.469C467.084 247.399 472.466 254.181 479.687 257.921C470.908 273.541 465.095 287.766 473.687 292.038C480.326 295.339 502.451 282.065 511.221 257.826C521.75 238.7 531.215 206.653 517.284 165.912" stroke="#E5A05C" stroke-width="2.04752" stroke-linecap="round"/>
<path d="M292.916 229.752C293.736 229.632 294.304 228.87 294.184 228.051C294.065 227.231 293.304 226.663 292.484 226.783C291.665 226.903 291.097 227.665 291.216 228.484C291.335 229.304 292.096 229.872 292.916 229.752Z" fill="#3F3D56"/>
<path d="M348.463 255.832C362.779 251.297 356.846 258.67 359.647 269.434C382.748 258.236 427.705 241.045 422.732 261.865C417.76 282.684 378.873 288.932 360.051 289.454C332.613 298.493 302.547 302.843 299.746 292.08C296.484 279.544 324.145 269.378 348.463 255.832Z" fill="url(#paint1_linear_856_39)"/>
<path d="M348.458 255.762C324.114 269.231 296.437 279.366 299.662 291.755C299.869 292.553 300.23 293.266 300.732 293.898M300.732 293.898C306.923 301.708 334.55 297.326 359.941 288.982C379.572 288.129 422.581 281.177 431.265 249.513M300.732 293.898C301.968 293.284 303.523 291.974 307.369 290.598M299.821 287.244C301.163 286.342 303.791 285.095 305.111 284.613" stroke="#E5A05C" stroke-width="2.04752" stroke-linecap="round"/>
<path d="M387.831 203.418L388.509 202.651L387.831 203.418ZM402.29 293.823L402.453 292.812L402.29 293.823ZM326.29 264.836L326.752 265.75L326.29 264.836ZM449.728 168.34L449.33 169.283L449.728 168.34ZM549.33 136.663L548.399 136.237L549.33 136.663ZM584.943 146.141L584.094 145.568L584.943 146.141ZM580.391 94.524L581.056 95.3017L580.391 94.524ZM611.923 143.119C611.751 143.657 612.048 144.233 612.587 144.405C613.125 144.577 613.702 144.28 613.874 143.742L611.923 143.119ZM329.342 190.98C328.794 191.121 328.464 191.678 328.604 192.226C328.745 192.774 329.302 193.104 329.85 192.964L329.342 190.98ZM315.372 270.238C314.925 270.585 314.845 271.228 315.192 271.674C315.539 272.121 316.182 272.201 316.628 271.854L315.372 270.238ZM570.568 111.93C571.049 111.631 571.196 111 570.897 110.52C570.598 110.039 569.967 109.892 569.487 110.191L570.568 111.93ZM593.253 130.235C593.408 129.692 593.094 129.125 592.55 128.97C592.006 128.815 591.44 129.129 591.284 129.673L593.253 130.235ZM585.219 91.7853C585.653 91.4225 585.711 90.7769 585.348 90.3432C584.985 89.9095 584.339 89.8519 583.906 90.2147L585.219 91.7853ZM613.869 101.963C613.69 101.427 613.11 101.137 612.574 101.317C612.037 101.496 611.748 102.076 611.928 102.612L613.869 101.963ZM387.153 204.185C414.198 228.096 422.853 251.271 422.301 267.894C422.025 276.216 419.447 282.877 415.747 287.227C412.054 291.57 407.274 293.591 402.453 292.812L402.127 294.833C407.79 295.749 413.246 293.328 417.307 288.554C421.362 283.786 424.059 276.652 424.348 267.962C424.925 250.559 415.866 226.838 388.509 202.651L387.153 204.185ZM402.453 292.812C395.829 291.741 390.706 288.07 385.981 283.375C383.615 281.025 381.373 278.443 379.091 275.819C376.819 273.206 374.509 270.553 372.046 268.116C367.113 263.236 361.483 259.139 354.054 257.82C346.626 256.502 337.569 257.99 325.828 263.923L326.752 265.75C338.249 259.941 346.847 258.621 353.696 259.836C360.543 261.051 365.812 264.829 370.606 269.571C373.006 271.945 375.266 274.54 377.546 277.162C379.817 279.775 382.11 282.416 384.537 284.828C389.398 289.657 394.894 293.664 402.127 294.833L402.453 292.812ZM449.33 169.283C476.919 180.923 498.791 180.32 515.493 173.009C532.171 165.709 543.533 151.789 550.261 137.089L548.399 136.237C541.82 150.611 530.771 164.086 514.672 171.134C498.594 178.171 477.319 178.869 450.126 167.396L449.33 169.283ZM584.094 145.568C579.66 152.132 575.076 153.934 571.389 153.065C567.614 152.175 564.202 148.371 562.423 142.464C558.891 130.74 562.122 111.508 581.056 95.3017L579.725 93.7462C560.258 110.408 556.666 130.453 560.462 143.054C562.346 149.31 566.135 153.93 570.919 155.058C575.793 156.206 581.127 153.618 585.791 146.714L584.094 145.568ZM329.85 192.964C349.836 187.846 370.501 189.462 387.153 204.185L388.509 202.651C371.19 187.338 349.75 185.755 329.342 190.98L329.85 192.964ZM325.828 263.923C321.253 266.234 317.832 268.326 315.372 270.238L316.628 271.854C318.946 270.053 322.241 268.029 326.752 265.75L325.828 263.923ZM550.261 137.089C553.011 131.082 556.801 125.586 560.563 121.183C564.336 116.768 568.034 113.506 570.568 111.93L569.487 110.191C566.711 111.918 562.857 115.347 559.007 119.852C555.147 124.369 551.243 130.023 548.399 136.237L550.261 137.089ZM591.284 129.673C590.299 133.122 588.328 139.301 584.094 145.568L585.791 146.714C590.203 140.183 592.246 133.763 593.253 130.235L591.284 129.673ZM581.056 95.3017C581.941 94.5445 582.982 93.6656 583.802 92.9752C584.212 92.6302 584.566 92.3326 584.818 92.1213C584.944 92.0157 585.045 91.9316 585.113 91.874C585.148 91.8452 585.174 91.823 585.192 91.808C585.201 91.8005 585.208 91.7948 585.213 91.791C585.215 91.7891 585.217 91.7877 585.218 91.7867C585.218 91.7862 585.219 91.7859 585.219 91.7856C585.219 91.7855 585.219 91.7854 585.219 91.7854C585.219 91.7853 585.219 91.7853 585.219 91.7853C585.219 91.7853 585.219 91.7853 584.563 91C583.906 90.2147 583.906 90.2147 583.906 90.2147C583.906 90.2147 583.906 90.2148 583.906 90.2148C583.906 90.2149 583.905 90.2149 583.905 90.2151C583.905 90.2153 583.905 90.2157 583.904 90.2162C583.903 90.2172 583.901 90.2186 583.899 90.2206C583.894 90.2244 583.887 90.2302 583.878 90.2377C583.86 90.2529 583.833 90.2752 583.799 90.3041C583.73 90.362 583.629 90.4464 583.503 90.5524C583.25 90.7643 582.894 91.0627 582.483 91.4087C581.662 92.1003 580.616 92.9834 579.725 93.7462L581.056 95.3017ZM323.695 185.425C337.179 175.206 358.735 166.995 381.908 163.438C405.077 159.882 429.703 161.002 449.33 169.283L450.126 167.396C430.035 158.92 404.995 157.823 381.597 161.414C358.204 165.005 336.294 173.308 322.458 183.793L323.695 185.425ZM611.928 102.612C615.821 114.251 616.162 129.849 611.923 143.119L613.874 143.742C618.244 130.06 617.901 114.016 613.869 101.963L611.928 102.612Z" fill="#FF8401"/>
<path d="M102.613 278.126C120.832 271.773 130.505 251.772 124.177 233.485C117.85 215.199 97.9716 205.527 79.753 211.88C61.5345 218.233 51.8614 238.233 58.1889 256.52C64.5164 274.807 84.4095 284.497 102.613 278.126Z" fill="#FF8400"/>
<path d="M101.854 243.496C101.273 242.819 100.476 242.409 99.5973 242.278C99.0524 242.177 98.4666 242.141 97.903 242.207C98.1887 241.913 98.4448 241.582 98.6379 241.212C98.9163 240.681 99.0836 240.09 99.0841 239.483C99.0697 238.857 98.933 238.272 98.7258 237.713C98.4113 236.757 97.8151 235.91 97.0406 235.3C96.2254 234.753 95.2802 234.464 94.2866 234.457C93.3301 234.42 92.3698 234.568 91.4427 234.871L90.1368 231.025L88.3072 233.37L89.1063 235.719L87.2446 236.392L86.4086 233.921L83.5357 233.388L84.8416 237.234L79.735 239.042L82.3582 241.357C82.6957 241.202 83.0739 241.135 83.4298 241.117C83.63 241.136 83.7894 241.218 83.9265 241.348C84.145 241.655 84.293 241.989 84.3854 242.368L87.922 252.792C88.07 253.125 88.1625 253.505 88.1548 253.875C88.1176 254.057 88.1508 254.212 87.9839 254.348C87.8317 254.503 87.8169 254.485 87.3237 254.676L86.2458 258.286L91.319 256.475L92.6249 260.32L95.028 259.478L93.7221 255.633L95.5986 254.978L96.9044 258.824L99.2556 257.994L97.9535 254.115C99.1328 253.667 100.231 253.042 101.229 252.257C102.137 251.514 102.82 250.531 103.196 249.436C103.475 248.298 103.42 247.13 103.072 246.019C102.821 245.102 102.41 244.255 101.854 243.496ZM88.3174 239.609L88.2915 239.539L89.9232 238.964C90.8355 238.643 93.7914 237.228 94.7349 239.792C95.6636 242.339 91.551 243.699 91.551 243.699L89.9193 244.275L89.8564 244.083L88.3174 239.609ZM90.7997 246.952L92.6761 246.297C93.0618 246.164 94.3894 245.746 94.8604 245.604C95.0532 245.537 95.2757 245.507 95.4611 245.507C95.5278 245.513 95.6131 245.504 95.6798 245.51C96.0172 245.507 96.3323 245.553 96.6251 245.647C96.8216 245.699 97.0143 245.784 97.1699 245.9C97.4182 246.091 97.6441 246.331 97.833 246.601C97.9626 246.798 98.0589 246.993 98.1366 247.202C98.292 247.621 98.3436 248.064 98.2469 248.477C98.113 249.071 97.8011 249.599 97.3522 249.997C96.5101 250.746 95.5383 251.297 94.4851 251.673L92.6086 252.327L90.7997 246.952Z" fill="white"/>
<defs>
<filter id="filter0_f_856_39" x="244.285" y="180.021" width="309.973" height="146.874" filterUnits="userSpaceOnUse" color-interpolation-filters="sRGB">
<feFlood flood-opacity="0" result="BackgroundImageFix"/>
<feBlend mode="normal" in="SourceGraphic" in2="BackgroundImageFix" result="shape"/>
<feGaussianBlur stdDeviation="13" result="effect1_foregroundBlur_856_39"/>
</filter>
<linearGradient id="paint0_linear_856_39" x1="207.024" y1="291.851" x2="211.557" y2="223.799" gradientUnits="userSpaceOnUse">
<stop offset="0.265625" stop-color="#E7A25D"/>
<stop offset="0.729167" stop-color="#FFB96A"/>
</linearGradient>
<linearGradient id="paint1_linear_856_39" x1="257.643" y1="315.617" x2="322.308" y2="361.605" gradientUnits="userSpaceOnUse">
<stop offset="0.0677083" stop-color="#E7A25D"/>
<stop offset="0.572917" stop-color="#FFB96A"/>
</linearGradient>
<clipPath id="clip0_856_39">
<rect width="62" height="62" fill="white" transform="matrix(0.946124 0.323806 -0.325673 0.945482 610 262)"/>
</clipPath>
<clipPath id="clip1_856_39">
<rect width="64" height="64" fill="white" transform="matrix(0.946116 0.323828 -0.325696 0.945475 610 261)"/>
</clipPath>
</defs>
</svg>
