<svg width="30" height="31" viewBox="0 0 30 31" fill="none" xmlns="http://www.w3.org/2000/svg">
<g clip-path="url(#clip0_361_57)">
<path d="M15 30.5C23.2843 30.5 30 23.7843 30 15.5C30 7.21573 23.2843 0.5 15 0.5C6.71573 0.5 0 7.21573 0 15.5C0 23.7843 6.71573 30.5 15 30.5Z" fill="#000D2B"/>
<path d="M14.9251 6.01196L10.6891 8.49401L14.9251 10.9761L19.2406 8.49401L14.9251 6.01196ZM15.6217 19.2631V24.2271L21.3751 20.9449V15.9799L15.6217 19.2631ZM19.9366 10.0549V15.0199L15.6211 17.502V12.537L19.9366 10.0549ZM9.54785 15.0199L13.8634 17.502V12.537L9.54785 10.0549V15.0199ZM9.54785 21.7452L13.8634 24.2272V19.2631L9.54785 16.7811V21.745V21.7452Z" fill="white"/>
</g>
<defs>
<clipPath id="clip0_361_57">
<rect width="30" height="30" fill="white" transform="translate(0 0.5)"/>
</clipPath>
</defs>
</svg>
