<svg width="28" height="29" viewBox="0 0 28 29" fill="none" xmlns="http://www.w3.org/2000/svg">
<circle cx="14" cy="14.5" r="14" fill="#FF8401"/>
<path d="M17.5291 13.8762C18.358 13.4186 18.8766 12.6127 18.7554 11.2702C18.5923 9.43544 17.1305 8.82021 15.2851 8.64501L15.2847 6.1001H13.8549L13.8545 8.57808C13.4783 8.57808 13.0949 8.58609 12.7131 8.59439L12.7128 6.10044L11.2843 6.10029L11.284 8.64457C10.9744 8.65142 10.6704 8.65794 10.3735 8.65794V8.65041L8.40137 8.64954L8.40163 10.3038C8.40163 10.3038 9.45751 10.2822 9.44012 10.3031C10.019 10.3036 10.2081 10.6679 10.2624 10.9823L10.2629 13.8815V17.9539C10.2374 18.1513 10.1301 18.4666 9.72533 18.4672C9.74375 18.4848 8.68525 18.467 8.68525 18.467L8.40163 20.3168H10.262C10.6086 20.3172 10.9492 20.323 11.2834 20.3259L11.2846 22.8997L12.7128 22.9001L12.7124 20.3533C13.1053 20.362 13.4846 20.3658 13.855 20.3653L13.8546 22.9001H15.2844L15.2852 20.3307C17.6885 20.1811 19.3711 19.525 19.5802 17.0791C19.7489 15.11 18.8936 14.231 17.5291 13.8762ZM12.7473 10.4154C13.5537 10.4154 16.0898 10.1371 16.0901 11.9626C16.0898 13.7127 13.5545 13.5082 12.7473 13.5082V10.4154ZM12.7467 18.4797L12.7473 15.0696C13.7161 15.0693 16.755 14.7675 16.7554 16.7739C16.7558 18.698 13.7161 18.479 12.7467 18.4797Z" fill="white"/>
</svg>
