<svg width="30" height="31" viewBox="0 0 30 31" fill="none" xmlns="http://www.w3.org/2000/svg">
<g clip-path="url(#clip0_361_115)">
<path d="M15 30.5C23.2843 30.5 30 23.7843 30 15.5C30 7.21573 23.2843 0.5 15 0.5C6.71573 0.5 0 7.21573 0 15.5C0 23.7843 6.71573 30.5 15 30.5Z" fill="#0E0E21"/>
<path d="M23.3747 19.0001L21.5935 15.9688C21.531 15.8438 21.3747 15.8126 21.281 15.9063L20.1247 16.6563C20.031 16.7188 19.9997 16.8751 20.0622 16.9688L21.0935 18.6876C21.1247 18.7501 21.0935 18.8126 21.0622 18.8438L15.0622 22.7188C15.031 22.7501 14.9685 22.7501 14.9372 22.7188L8.99974 18.8438C8.93724 18.8126 8.93724 18.7501 8.96849 18.6876L9.99974 16.9688C10.0622 16.8751 10.031 16.7188 9.93724 16.6563L8.78099 15.9063C8.65599 15.8438 8.53099 15.8751 8.46849 15.9688L6.68724 19.0001C6.56224 19.2188 6.62474 19.5001 6.84349 19.6251L14.8122 24.8126C14.9685 24.9063 15.156 24.9063 15.3122 24.8126L23.281 19.6251C23.4372 19.4688 23.4997 19.1876 23.3747 19.0001Z" fill="white"/>
<path d="M9.65605 14.2812L10.8123 15.0312C10.9373 15.0937 11.0623 15.0625 11.1248 14.9687L14.8748 8.59375C14.9061 8.53125 15.0311 8.53125 15.0623 8.59375L18.8123 14.9687C18.8748 15.0937 19.0311 15.125 19.1248 15.0312L20.2811 14.2812C20.3748 14.2187 20.4061 14.0625 20.3436 13.9687L15.9373 6.34375C15.8436 6.1875 15.7186 6.125 15.5311 6.125H14.4686C14.3123 6.125 14.1561 6.21875 14.0623 6.34375L9.59355 13.9687C9.53105 14.0625 9.5623 14.2187 9.65605 14.2812Z" fill="#2AE7A8"/>
</g>
<defs>
<clipPath id="clip0_361_115">
<rect width="30" height="30" fill="white" transform="translate(0 0.5)"/>
</clipPath>
</defs>
</svg>
