<svg width="30" height="31" viewBox="0 0 30 31" fill="none" xmlns="http://www.w3.org/2000/svg">
<g clip-path="url(#clip0_361_180)">
<path d="M29.9499 15.5347C29.9499 23.778 23.2676 30.4601 15.0245 30.4601C6.78121 30.4601 0.0991211 23.778 0.0991211 15.5347C0.0991211 7.29161 6.78121 0.609375 15.0245 0.609375C23.2676 0.609375 29.9499 7.29161 29.9499 15.5347Z" fill="#020100"/>
<path d="M24.373 11.6483C23.5299 11.0586 22.6282 10.4299 21.7461 9.80602C21.7266 9.7914 21.7071 9.77678 21.6827 9.76216C21.5852 9.68905 21.4731 9.61107 21.3367 9.56721L21.3269 9.56233C18.968 8.9921 16.5701 8.40725 14.2502 7.84189C12.1447 7.33014 10.0441 6.81839 7.93864 6.30665C7.88503 6.29203 7.83142 6.2774 7.77293 6.26278C7.58286 6.20917 7.36354 6.15068 7.12959 6.17993C7.06136 6.18968 7.00288 6.21404 6.94926 6.24816L6.89078 6.2969C6.79818 6.38463 6.74944 6.49672 6.72507 6.56008L6.71045 6.59907V6.82327L6.7202 6.85738C8.05074 10.5858 9.4154 14.3679 10.7313 18.0281C11.7451 20.8451 12.7978 23.7645 13.8262 26.6303C13.8895 26.8253 14.0699 26.952 14.2941 26.9715H14.3428C14.5524 26.9715 14.7376 26.8691 14.8302 26.7034L18.6902 21.0742C19.6308 19.7047 20.5715 18.3303 21.5121 16.9607C21.8972 16.4002 22.2822 15.8349 22.6672 15.2744C23.3008 14.3484 23.9539 13.3931 24.6021 12.4622L24.6362 12.4135V12.355C24.6508 12.1844 24.6557 11.8335 24.373 11.6483ZM19.8502 13.7002C18.9436 14.1729 18.0176 14.6603 17.0867 15.1428C17.6277 14.5628 18.1736 13.978 18.7146 13.398C19.392 12.6669 20.0987 11.9115 20.7908 11.1707L20.8054 11.1561C20.8639 11.0781 20.937 11.005 21.015 10.927C21.0686 10.8734 21.1271 10.8198 21.1807 10.7564C21.5414 11.005 21.9069 11.2584 22.2578 11.507C22.5112 11.6873 22.7696 11.8676 23.0327 12.048C21.9605 12.5938 20.8883 13.1543 19.8502 13.7002ZM17.5205 13.4662C16.8235 14.2217 16.1022 14.9966 15.3858 15.7618C13.9968 14.0755 12.5785 12.3648 11.2041 10.7125C10.5802 9.96198 9.95151 9.20655 9.32767 8.45598L9.3228 8.45111C9.18146 8.29028 9.04499 8.11482 8.90852 7.94911C8.8208 7.83701 8.72819 7.72979 8.63559 7.61769C9.20095 7.76391 9.77118 7.90037 10.3317 8.03197C10.8239 8.14894 11.3357 8.27078 11.8377 8.3975C14.6645 9.0847 17.4961 9.7719 20.3229 10.4591C19.3823 11.4631 18.4368 12.4817 17.5205 13.4662ZM15.069 22.9652C15.1226 22.4535 15.1811 21.9271 15.2298 21.4105C15.2737 20.9962 15.3175 20.5722 15.3614 20.1677C15.4296 19.5195 15.5028 18.8469 15.5612 18.1889L15.5759 18.072C15.6246 17.6528 15.6733 17.219 15.7026 16.7853C15.7562 16.756 15.8147 16.7268 15.878 16.7024C15.9511 16.6683 16.0242 16.6391 16.0974 16.5952C17.2232 16.0055 18.349 15.4157 19.4798 14.8309C20.6056 14.246 21.7607 13.6417 22.906 13.0422C21.863 14.5531 20.8152 16.0786 19.8014 17.5651C18.929 18.8371 18.0322 20.1482 17.1403 21.4397C16.7894 21.9564 16.4239 22.4827 16.0779 22.9896C15.688 23.555 15.2883 24.1349 14.8984 24.7149C14.9471 24.1301 15.0056 23.5403 15.069 22.9652ZM8.27493 8.76791C8.21157 8.59245 8.14334 8.41212 8.08486 8.24154C9.40078 9.83039 10.7264 11.429 12.018 12.9789C12.6857 13.783 13.3534 14.5823 14.0211 15.3914C14.1527 15.5425 14.2843 15.7033 14.411 15.8593C14.5767 16.0591 14.7424 16.2687 14.9228 16.4685C14.8643 16.9705 14.8155 17.4774 14.7619 17.9647C14.7278 18.3059 14.6937 18.6471 14.6547 18.9931V18.998C14.6401 19.2173 14.6108 19.4366 14.5865 19.6511C14.5524 19.9484 14.4744 20.6209 14.4744 20.6209L14.4695 20.6551C14.3818 21.6396 14.2746 22.6338 14.1722 23.5988C14.1283 23.9985 14.0894 24.4079 14.0455 24.8173C14.0211 24.7442 13.9919 24.6711 13.9675 24.6028C13.8944 24.4079 13.8213 24.2032 13.7531 24.0033L13.2316 22.5558C11.5794 17.9599 9.92714 13.3688 8.27493 8.76791Z" fill="white"/>
</g>
<defs>
<clipPath id="clip0_361_180">
<rect width="30" height="30" fill="white" transform="translate(0 0.5)"/>
</clipPath>
</defs>
</svg>
