<svg xmlns="http://www.w3.org/2000/svg">
    <symbol id="location-map" viewBox="0 0 20 20">
        <path d="M9.99951 1.24976C8.17681 1.25192 6.42939 1.97694 5.14054 3.26579C3.8517 4.55463 3.12667 6.30206 3.12451 8.12476C3.12451 14.0073 9.37451 18.4507 9.64062 18.6368C9.74587 18.7103 9.87114 18.7498 9.99951 18.7498C10.1279 18.7498 10.2532 18.7103 10.3584 18.6368C10.6245 18.4507 16.8745 14.0073 16.8745 8.12476C16.8723 6.30206 16.1473 4.55463 14.8585 3.26579C13.5696 1.97694 11.8222 1.25192 9.99951 1.24976ZM9.99997 5.62498C10.4944 5.62498 10.9778 5.77161 11.3889 6.04631C11.8 6.32101 12.1204 6.71146 12.3097 7.16827C12.4989 7.62509 12.5484 8.12776 12.4519 8.61271C12.3555 9.09766 12.1174 9.54312 11.7677 9.89275C11.4181 10.2424 10.9726 10.4805 10.4877 10.5769C10.0027 10.6734 9.50008 10.6239 9.04326 10.4347C8.58645 10.2455 8.196 9.92503 7.9213 9.51391C7.64659 9.10278 7.49997 8.61944 7.49997 8.12498C7.49996 7.79668 7.56462 7.47158 7.69025 7.16826C7.81588 6.86494 8.00003 6.58934 8.23218 6.35719C8.46433 6.12505 8.73993 5.9409 9.04325 5.81526C9.34657 5.68963 9.67166 5.62497 9.99997 5.62498Z"/>
    </symbol>

    <symbol id="circle-telegram" viewBox="0 0 20 20">
        <path d="M10 19.0002C5.0293 19.0002 1 14.9709 1 10.0002C1 5.02954 5.0293 1.00024 10 1.00024C14.9707 1.00024 19 5.02954 19 10.0002C19 14.9709 14.9707 19.0002 10 19.0002ZM7.201 11.0532L7.2127 11.0469L7.9957 13.6299C8.0965 13.9098 8.2351 13.9602 8.4034 13.9368C8.5726 13.9143 8.6617 13.8234 8.7724 13.7172L9.8416 12.684L12.1366 14.3832C12.556 14.6145 12.8575 14.4948 12.9619 13.9944L14.4532 6.95464C14.6179 6.29944 14.3299 6.03664 13.8214 6.24544L5.0617 9.62944C4.4641 9.86884 4.4677 10.2036 4.9537 10.3521L7.201 11.0532Z"/>
    </symbol>
    <symbol id="circle-mail" viewBox="0 0 20 20">
        <path d="M7.1416 7.6952L10.027 9.8732L12.8557 7.6976L13.4443 8.3028L10.0328 10.9268L6.55885 8.3048L7.1416 7.6952Z"/>
        <path fill-rule="evenodd" clip-rule="evenodd" d="M10 19C14.9706 19 19 14.9706 19 10C19 5.02944 14.9706 1 10 1C5.02944 1 1 5.02944 1 10C1 14.9706 5.02944 19 10 19ZM14.3682 6.51716C14.2838 6.44214 14.1693 6.4 14.05 6.4H5.95C5.83065 6.4 5.71619 6.44214 5.6318 6.51716C5.54741 6.59217 5.5 6.69391 5.5 6.8V13.2C5.5 13.3061 5.54741 13.4078 5.6318 13.4828C5.71619 13.5579 5.83065 13.6 5.95 13.6H14.05C14.1693 13.6 14.2838 13.5579 14.3682 13.4828C14.4526 13.4078 14.5 13.3061 14.5 13.2V6.8C14.5 6.69391 14.4526 6.59217 14.3682 6.51716Z"/>
    </symbol>
    <symbol id="circle-facebook" viewBox="0 0 20 20">
        <path fill-rule="evenodd" clip-rule="evenodd" d="M10 1.00006C5.02944 1.00006 1 5.0295 1 10.0001C1 14.9706 5.02944 19.0001 10 19.0001C14.9706 19.0001 19 14.9706 19 10.0001C19 5.0295 14.9706 1.00006 10 1.00006ZM12.7666 8.65305L12.4719 10.7105H10.9237V15.6842H8.84726V10.7105H7.16016V8.65305H8.84726V7.08501C8.84726 5.30115 9.83933 4.31573 11.3571 4.31573C12.084 4.31573 12.8444 4.45473 12.8444 4.45473V6.2064H12.0065C11.1811 6.2064 10.9237 6.75506 10.9237 7.31793V8.65305H12.7666Z"/>
    </symbol>

    <symbol id="twitter" viewBox="0 0 16 16">
        <path d="M16 3.54319C15.3705 3.81393 14.7409 3.98302 14.1117 4.05093C14.8224 3.62455 15.3031 3.02218 15.5535 2.24386C14.9035 2.62957 14.2099 2.89345 13.4722 3.03565C12.8224 2.34531 12.0239 2 11.0761 2C10.1693 2 9.3961 2.31975 8.75625 2.95938C8.11676 3.59898 7.79698 4.37217 7.79698 5.27907C7.79698 5.52268 7.824 5.7732 7.87819 6.03036C6.53805 5.96269 5.2809 5.62598 4.10653 5.02024C2.93223 4.41442 1.93562 3.6073 1.11669 2.59888C0.818887 3.10638 0.669931 3.65808 0.669931 4.25366C0.669931 4.81542 0.80189 5.33664 1.06599 5.81718C1.3299 6.29766 1.68532 6.68678 2.13204 6.98462C1.60403 6.96428 1.10997 6.82549 0.649804 6.56829V6.6089C0.649804 7.40084 0.898539 8.09612 1.39594 8.69529C1.89341 9.29439 2.5212 9.67149 3.27918 9.82724C2.99488 9.90159 2.70717 9.93882 2.4162 9.93882C2.22667 9.93882 2.02021 9.92193 1.7969 9.88833C2.0067 10.5447 2.39251 11.0843 2.9542 11.5075C3.516 11.9305 4.15222 12.1486 4.8629 12.1624C3.67175 13.0963 2.31475 13.5632 0.791898 13.5632C0.500812 13.5632 0.236929 13.5499 0 13.5227C1.52288 14.504 3.20137 14.9946 5.03557 14.9946C6.1997 14.9946 7.29279 14.8104 8.31447 14.4414C9.33664 14.0727 10.2097 13.5785 10.9339 12.9591C11.658 12.3399 12.2825 11.6275 12.8069 10.8221C13.3314 10.0167 13.7222 9.17583 13.9796 8.29938C14.2367 7.42274 14.3653 6.54475 14.3653 5.66474C14.3653 5.47521 14.3619 5.33315 14.3551 5.23835C14.9983 4.77157 15.5465 4.20633 16 3.54319Z"/>
    </symbol>
    <symbol id="instagram" viewBox="0 0 16 16">
        <path fill-rule="evenodd" clip-rule="evenodd" d="M8.00167 3.8978C5.73151 3.8978 3.90039 5.72933 3.90039 7.99999C3.90039 10.2707 5.73151 12.1022 8.00167 12.1022C10.2718 12.1022 12.103 10.2707 12.103 7.99999C12.103 5.72933 10.2718 3.8978 8.00167 3.8978ZM8.00178 10.667C6.53475 10.667 5.33542 9.47094 5.33542 8C5.33542 6.52906 6.53118 5.33304 8.00178 5.33304C9.47239 5.33304 10.6682 6.52906 10.6682 8C10.6682 9.47094 9.46882 10.667 8.00178 10.667V10.667ZM13.2277 3.73002C13.2277 4.26198 12.7993 4.68684 12.2711 4.68684C11.7392 4.68684 11.3145 4.25841 11.3145 3.73002C11.3145 3.20162 11.7428 2.77319 12.2711 2.77319C12.7993 2.77319 13.2277 3.20162 13.2277 3.73002ZM15.9438 4.7011C15.8831 3.41939 15.5904 2.28406 14.6516 1.34866C13.7165 0.413254 12.5814 0.120495 11.2999 0.0562312C9.97925 -0.0187437 6.02075 -0.0187437 4.70006 0.0562312C3.4222 0.116925 2.28712 0.409684 1.34835 1.34509C0.409593 2.28049 0.120468 3.41582 0.0562186 4.69753C-0.0187395 6.01852 -0.0187395 9.97791 0.0562186 11.2989C0.116899 12.5806 0.409593 13.7159 1.34835 14.6513C2.28712 15.5867 3.41863 15.8795 4.70006 15.9438C6.02075 16.0187 9.97925 16.0187 11.2999 15.9438C12.5814 15.8831 13.7165 15.5903 14.6516 14.6513C15.5868 13.7159 15.8795 12.5806 15.9438 11.2989C16.0187 9.97791 16.0187 6.02209 15.9438 4.7011ZM14.2376 12.7163C13.9592 13.416 13.4202 13.9551 12.717 14.2372C11.664 14.6549 9.16542 14.5585 8.00178 14.5585C6.83815 14.5585 4.33597 14.6513 3.28656 14.2372C2.58695 13.9587 2.04796 13.4196 1.76598 12.7163C1.34835 11.6631 1.44473 9.1639 1.44473 8C1.44473 6.8361 1.35192 4.33337 1.76598 3.28372C2.04439 2.58396 2.58338 2.04485 3.28656 1.7628C4.33954 1.34509 6.83815 1.44148 8.00178 1.44148C9.16542 1.44148 11.6676 1.34866 12.717 1.7628C13.4166 2.04128 13.9556 2.58039 14.2376 3.28372C14.6552 4.33694 14.5588 6.8361 14.5588 8C14.5588 9.1639 14.6552 11.6666 14.2376 12.7163Z"/>
    </symbol>
    <symbol id="youtube" viewBox="0 0 16 16">
        <path fill-rule="evenodd" clip-rule="evenodd" d="M15.6657 4.72113C15.4817 4.04365 14.9395 3.5101 14.2511 3.32903C13.0033 3 8 3 8 3C8 3 2.99669 3 1.7489 3.32903C1.06052 3.51012 0.518349 4.04365 0.334336 4.72113C0 5.94909 0 8.51111 0 8.51111C0 8.51111 0 11.0731 0.334336 12.3011C0.518349 12.9786 1.06052 13.4899 1.7489 13.671C2.99669 14 8 14 8 14C8 14 13.0033 14 14.2511 13.671C14.9395 13.4899 15.4817 12.9786 15.6657 12.3011C16 11.0731 16 8.51111 16 8.51111C16 8.51111 16 5.94909 15.6657 4.72113ZM6 11V6L10 8.50006L6 11Z"/>
    </symbol>
    <symbol id="facebook" viewBox="0 0 16 16">
        <path d="M12.0356 9L12.48 6.10437H9.70158V4.22531C9.70158 3.43313 10.0897 2.66094 11.3341 2.66094H12.5972V0.195625C12.5972 0.195625 11.451 0 10.355 0C8.06689 0 6.57127 1.38688 6.57127 3.8975V6.10437H4.02783V9H6.57127V16H9.70158V9H12.0356Z"/>
    </symbol>
</svg>
